# MagicaVoxel @ Ephtracy

# group
g ammo

# material
mtllib ammo.mtl
usemtl palette

# normals
vn -1 0 0
vn 1 0 0
vn 0 0 1
vn 0 0 -1
vn 0 -1 0
vn 0 1 0

# texcoords
vt 0.306641 0.5
vt 0.966797 0.5
vt 0.970703 0.5
vt 0.974609 0.5
vt 0.982422 0.5

# verts
v -20 0 10
v -20 0 -0
v -20 0 -6
v -20 0 -18
v -20 4 -6
v -20 4 -18
v -20 9 10
v -20 9 -0
v -17 0 20
v -17 0 10
v -17 9 20
v -17 9 11
v -17 9 10
v -17 9 4
v -17 16 11
v -17 16 4
v -16 4 -8
v -16 4 -16
v -16 16 -8
v -16 16 -16
v -15 0 -0
v -15 0 -6
v -15 0 -18
v -15 0 -20
v -15 4 -6
v -15 4 -8
v -15 4 -16
v -15 4 -18
v -15 9 -0
v -15 9 -16
v -15 9 -20
v -15 12 -0
v -15 12 -8
v -12 9 4
v -12 9 -0
v -12 11 4
v -12 11 -0
v -12 12 -4
v -12 12 -8
v -12 15 -4
v -12 15 -8
v -9 9 13
v -9 9 11
v -9 11 4
v -9 11 2
v -9 13 13
v -9 13 11
v -9 16 9
v -9 16 4
v -9 21 9
v -9 21 2
v -7 11 2
v -7 11 -0
v -7 12 -0
v -7 12 -4
v -7 15 -4
v -7 15 -6
v -7 19 2
v -7 19 -6
v -3 19 2
v -3 19 -4
v -3 21 4
v -3 21 2
v -3 26 4
v -3 26 -4
v -1 10 5
v -1 10 4
v -1 11 5
v -1 11 4
v -1 15 -6
v -1 15 -8
v -1 19 -4
v -1 19 -6
v -1 20 -4
v -1 20 -8
v 0 0 20
v 0 0 17
v 0 5 17
v 0 5 13
v 0 9 20
v 0 9 13
v 1 0 -15
v 1 0 -20
v 1 1 -15
v 1 7 -15
v 1 9 15
v 1 9 13
v 1 10 -15
v 1 10 -20
v 1 13 13
v 1 13 9
v 1 15 15
v 1 15 9
v 3 7 -8
v 3 7 -15
v 3 10 -15
v 3 15 -8
v 3 15 -15
v -9 0 20
v -9 0 17
v -9 5 17
v -9 5 13
v -9 9 20
v -9 9 13
v -9 9 -12
v -9 9 -16
v -9 13 11
v -9 13 9
v -9 15 -8
v -9 15 -12
v -9 16 11
v -9 16 9
v -9 16 -8
v -9 16 -16
v -6 0 -15
v -6 0 -20
v -6 1 -15
v -6 7 -12
v -6 7 -15
v -6 9 -12
v -6 9 -20
v -6 10 5
v -6 10 4
v -6 11 5
v -6 11 4
v -1 7 -8
v -1 7 -12
v -1 15 -8
v -1 15 -12
v 1 15 9
v 1 15 7
v 1 20 7
v 1 20 4
v 1 21 9
v 1 21 4
v 5 20 4
v 5 20 -4
v 5 26 4
v 5 26 -4
v 9 13 4
v 9 13 -5
v 9 15 7
v 9 15 4
v 9 15 -5
v 9 15 -8
v 9 20 7
v 9 20 -8
v 11 0 20
v 11 0 15
v 11 9 20
v 11 9 15
v 11 9 5
v 11 13 5
v 11 13 4
v 11 15 15
v 11 15 4
v 12 9 -5
v 12 9 -13
v 12 10 -13
v 12 10 -15
v 12 13 -5
v 12 15 -5
v 12 15 -15
v 13 0 -13
v 13 0 -20
v 13 9 -13
v 13 10 -13
v 13 10 -20
v 16 0 5
v 16 0 -5
v 16 9 5
v 16 9 -5
v 16 13 5
v 16 13 -5
v 20 0 15
v 20 0 5
v 20 0 -5
v 20 0 -13
v 20 9 15
v 20 9 5
v 20 9 -5
v 20 9 -13
v -17 0 20
v -17 9 20
v -9 0 20
v -9 9 20
v 0 0 20
v 0 9 20
v 11 0 20
v 11 9 20
v -9 0 17
v -9 5 17
v 0 0 17
v 0 5 17
v 1 9 15
v 1 15 15
v 11 0 15
v 11 9 15
v 11 15 15
v 20 0 15
v 20 9 15
v -9 5 13
v -9 9 13
v -9 13 13
v 0 5 13
v 0 9 13
v 1 9 13
v 1 13 13
v -17 9 11
v -17 16 11
v -9 9 11
v -9 13 11
v -9 16 11
v -20 0 10
v -20 9 10
v -17 0 10
v -17 9 10
v -9 13 9
v -9 16 9
v -9 21 9
v 1 13 9
v 1 15 9
v 1 21 9
v 1 15 7
v 1 20 7
v 9 15 7
v 9 20 7
v 11 9 5
v 11 13 5
v 16 9 5
v 16 13 5
v -6 10 4
v -6 11 4
v -3 21 4
v -3 26 4
v -1 10 4
v -1 11 4
v 1 20 4
v 1 21 4
v 5 20 4
v 5 26 4
v -15 9 -0
v -15 12 -0
v -12 9 -0
v -12 11 -0
v -7 11 -0
v -7 12 -0
v -12 12 -4
v -12 15 -4
v -7 12 -4
v -7 15 -4
v 9 13 -5
v 9 15 -5
v 12 13 -5
v 12 15 -5
v 16 0 -5
v 16 9 -5
v 20 0 -5
v 20 9 -5
v -20 0 -6
v -20 4 -6
v -15 0 -6
v -15 4 -6
v -16 4 -8
v -16 16 -8
v -15 4 -8
v -15 12 -8
v -12 12 -8
v -12 15 -8
v -9 15 -8
v -9 16 -8
v 12 9 -13
v 12 10 -13
v 13 9 -13
v 13 10 -13
v 1 7 -15
v 1 10 -15
v 3 7 -15
v 3 10 -15
v -6 10 5
v -6 11 5
v -1 10 5
v -1 11 5
v 16 0 5
v 16 9 5
v 20 0 5
v 20 9 5
v -17 9 4
v -17 16 4
v -12 9 4
v -12 11 4
v -9 11 4
v -9 16 4
v 9 13 4
v 9 15 4
v 11 13 4
v 11 15 4
v -9 11 2
v -9 21 2
v -7 11 2
v -7 19 2
v -3 19 2
v -3 21 2
v -20 0 -0
v -20 9 -0
v -15 0 -0
v -15 9 -0
v -3 19 -4
v -3 26 -4
v -1 19 -4
v -1 20 -4
v 5 20 -4
v 5 26 -4
v 12 9 -5
v 12 13 -5
v 16 9 -5
v 16 13 -5
v -7 15 -6
v -7 19 -6
v -1 15 -6
v -1 19 -6
v -1 7 -8
v -1 15 -8
v -1 20 -8
v 3 7 -8
v 3 15 -8
v 9 15 -8
v 9 20 -8
v -9 9 -12
v -9 15 -12
v -6 7 -12
v -6 9 -12
v -1 7 -12
v -1 15 -12
v 13 0 -13
v 13 9 -13
v 20 0 -13
v 20 9 -13
v -6 0 -15
v -6 1 -15
v -6 7 -15
v 1 0 -15
v 1 1 -15
v 1 7 -15
v 3 10 -15
v 3 15 -15
v 12 10 -15
v 12 15 -15
v -16 4 -16
v -16 16 -16
v -15 4 -16
v -15 9 -16
v -9 9 -16
v -9 16 -16
v -20 0 -18
v -20 4 -18
v -15 0 -18
v -15 4 -18
v -15 0 -20
v -15 9 -20
v -6 0 -20
v -6 9 -20
v 1 0 -20
v 1 10 -20
v 13 0 -20
v 13 10 -20
v -17 0 20
v -9 0 20
v 0 0 20
v 11 0 20
v -9 0 17
v 0 0 17
v 11 0 15
v 20 0 15
v -16 0 13
v 0 0 13
v 11 0 13
v -20 0 10
v -17 0 10
v -16 0 10
v 12 0 5
v 16 0 5
v 20 0 5
v -17 0 4
v -13 0 4
v -20 0 -0
v -15 0 -0
v -13 0 -0
v 12 0 -5
v 16 0 -5
v 20 0 -5
v -20 0 -6
v -15 0 -6
v -14 0 -6
v -13 0 -6
v -15 0 -7
v -14 0 -7
v 12 0 -13
v 13 0 -13
v 20 0 -13
v -15 0 -15
v -6 0 -15
v 1 0 -15
v 12 0 -15
v -20 0 -18
v -15 0 -18
v -15 0 -20
v -6 0 -20
v 1 0 -20
v 13 0 -20
v -6 11 5
v -1 11 5
v -6 11 4
v -1 11 4
v -20 4 -6
v -15 4 -6
v -16 4 -8
v -15 4 -8
v -16 4 -16
v -15 4 -16
v -20 4 -18
v -15 4 -18
v -9 5 17
v 0 5 17
v -9 5 13
v 0 5 13
v -1 7 -8
v 3 7 -8
v -6 7 -12
v -1 7 -12
v -6 7 -15
v 1 7 -15
v 3 7 -15
v -17 9 20
v -9 9 20
v 0 9 20
v 11 9 20
v 1 9 15
v 11 9 15
v 20 9 15
v -9 9 13
v 0 9 13
v 1 9 13
v -17 9 11
v -9 9 11
v -20 9 10
v -17 9 10
v 11 9 5
v 16 9 5
v 20 9 5
v -17 9 4
v -12 9 4
v -20 9 -0
v -15 9 -0
v -12 9 -0
v 12 9 -5
v 16 9 -5
v 20 9 -5
v -9 9 -12
v -6 9 -12
v 12 9 -13
v 13 9 -13
v 20 9 -13
v -15 9 -16
v -9 9 -16
v -15 9 -20
v -6 9 -20
v -6 10 5
v -1 10 5
v -6 10 4
v -1 10 4
v 12 10 -13
v 13 10 -13
v 1 10 -15
v 3 10 -15
v 12 10 -15
v 1 10 -20
v 13 10 -20
v -12 11 4
v -9 11 4
v -9 11 2
v -7 11 2
v -12 11 -0
v -7 11 -0
v -15 12 -0
v -7 12 -0
v -12 12 -4
v -7 12 -4
v -15 12 -8
v -12 12 -8
v -9 13 13
v 1 13 13
v -9 13 11
v -9 13 9
v 1 13 9
v 11 13 5
v 16 13 5
v 9 13 4
v 11 13 4
v 9 13 -5
v 12 13 -5
v 16 13 -5
v 1 15 15
v 11 15 15
v 1 15 9
v 1 15 7
v 9 15 7
v 9 15 4
v 11 15 4
v -12 15 -4
v -7 15 -4
v 9 15 -5
v 12 15 -5
v -7 15 -6
v -1 15 -6
v -12 15 -8
v -9 15 -8
v -1 15 -8
v 3 15 -8
v 9 15 -8
v -9 15 -12
v -1 15 -12
v 3 15 -15
v 12 15 -15
v -17 16 11
v -9 16 11
v -9 16 9
v -17 16 4
v -9 16 4
v -16 16 -8
v -9 16 -8
v -16 16 -16
v -9 16 -16
v -7 19 2
v -3 19 2
v -3 19 -4
v -1 19 -4
v -7 19 -6
v -1 19 -6
v 1 20 7
v 9 20 7
v 1 20 4
v 5 20 4
v -1 20 -4
v 5 20 -4
v -1 20 -8
v 9 20 -8
v -9 21 9
v 1 21 9
v -3 21 4
v 1 21 4
v -9 21 2
v -3 21 2
v -3 26 4
v 5 26 4
v -3 26 -4
v 5 26 -4

# faces
f 5/4/1 4/4/1 3/4/1
f 6/4/1 4/4/1 5/4/1
f 7/3/1 2/3/1 1/3/1
f 8/3/1 2/3/1 7/3/1
f 11/4/1 10/4/1 9/4/1
f 12/4/1 10/4/1 11/4/1
f 13/4/1 10/4/1 12/4/1
f 15/5/1 14/5/1 13/5/1
f 15/5/1 13/5/1 12/5/1
f 16/5/1 14/5/1 15/5/1
f 19/5/1 18/5/1 17/5/1
f 20/5/1 18/5/1 19/5/1
f 25/4/1 22/4/1 21/4/1
f 28/3/1 24/3/1 23/3/1
f 29/4/1 26/4/1 25/4/1
f 29/4/1 25/4/1 21/4/1
f 30/3/1 28/3/1 27/3/1
f 31/3/1 24/3/1 28/3/1
f 31/3/1 28/3/1 30/3/1
f 32/4/1 26/4/1 29/4/1
f 33/4/1 26/4/1 32/4/1
f 36/2/1 35/2/1 34/2/1
f 37/2/1 35/2/1 36/2/1
f 40/5/1 39/5/1 38/5/1
f 41/5/1 39/5/1 40/5/1
f 46/2/1 43/2/1 42/2/1
f 47/2/1 43/2/1 46/2/1
f 49/4/1 45/4/1 44/4/1
f 50/4/1 49/4/1 48/4/1
f 51/4/1 45/4/1 49/4/1
f 51/4/1 49/4/1 50/4/1
f 54/3/1 53/3/1 52/3/1
f 56/3/1 55/3/1 54/3/1
f 58/3/1 54/3/1 52/3/1
f 58/3/1 57/3/1 56/3/1
f 58/3/1 56/3/1 54/3/1
f 59/3/1 57/3/1 58/3/1
f 63/5/1 61/5/1 60/5/1
f 64/5/1 63/5/1 62/5/1
f 65/5/1 61/5/1 63/5/1
f 65/5/1 63/5/1 64/5/1
f 68/1/1 67/1/1 66/1/1
f 69/1/1 67/1/1 68/1/1
f 73/2/1 71/2/1 70/2/1
f 74/2/1 73/2/1 72/2/1
f 75/2/1 71/2/1 73/2/1
f 75/2/1 73/2/1 74/2/1
f 78/5/1 77/5/1 76/5/1
f 80/5/1 78/5/1 76/5/1
f 80/5/1 79/5/1 78/5/1
f 81/5/1 79/5/1 80/5/1
f 84/5/1 83/5/1 82/5/1
f 85/5/1 83/5/1 84/5/1
f 88/5/1 83/5/1 85/5/1
f 89/5/1 83/5/1 88/5/1
f 90/5/1 87/5/1 86/5/1
f 92/5/1 90/5/1 86/5/1
f 92/5/1 91/5/1 90/5/1
f 93/5/1 91/5/1 92/5/1
f 96/4/1 95/4/1 94/4/1
f 97/4/1 96/4/1 94/4/1
f 98/4/1 96/4/1 97/4/1
f 99/4/2 100/4/2 101/4/2
f 99/4/2 101/4/2 103/4/2
f 101/4/2 102/4/2 103/4/2
f 103/4/2 102/4/2 104/4/2
f 105/5/2 106/5/2 110/5/2
f 107/5/2 108/5/2 111/5/2
f 111/5/2 108/5/2 112/5/2
f 109/5/2 110/5/2 113/5/2
f 110/5/2 106/5/2 114/5/2
f 113/5/2 110/5/2 114/5/2
f 115/3/2 116/3/2 117/3/2
f 117/3/2 116/3/2 119/3/2
f 118/3/2 119/3/2 120/3/2
f 119/3/2 116/3/2 121/3/2
f 120/3/2 119/3/2 121/3/2
f 122/1/2 123/1/2 124/1/2
f 124/1/2 123/1/2 125/1/2
f 126/5/2 127/5/2 128/5/2
f 128/5/2 127/5/2 129/5/2
f 130/4/2 131/4/2 132/4/2
f 130/4/2 132/4/2 134/4/2
f 132/4/2 133/4/2 134/4/2
f 134/4/2 133/4/2 135/4/2
f 136/5/2 137/5/2 138/5/2
f 138/5/2 137/5/2 139/5/2
f 140/2/2 141/2/2 143/2/2
f 143/2/2 141/2/2 144/2/2
f 142/2/2 143/2/2 146/2/2
f 144/2/2 145/2/2 146/2/2
f 143/2/2 144/2/2 146/2/2
f 146/2/2 145/2/2 147/2/2
f 148/5/2 149/5/2 150/5/2
f 150/5/2 149/5/2 151/5/2
f 151/5/2 152/5/2 153/5/2
f 151/5/2 153/5/2 155/5/2
f 153/5/2 154/5/2 155/5/2
f 155/5/2 154/5/2 156/5/2
f 157/4/2 158/4/2 159/4/2
f 157/4/2 159/4/2 161/4/2
f 159/4/2 160/4/2 161/4/2
f 161/4/2 160/4/2 162/4/2
f 162/4/2 160/4/2 163/4/2
f 164/5/2 165/5/2 166/5/2
f 166/5/2 165/5/2 167/5/2
f 167/5/2 165/5/2 168/5/2
f 169/5/2 170/5/2 171/5/2
f 171/5/2 170/5/2 172/5/2
f 171/5/2 172/5/2 173/5/2
f 173/5/2 172/5/2 174/5/2
f 175/2/2 176/2/2 179/2/2
f 179/2/2 176/2/2 180/2/2
f 177/4/2 178/4/2 181/4/2
f 181/4/2 178/4/2 182/4/2
f 185/4/3 184/4/3 183/4/3
f 186/4/3 184/4/3 185/4/3
f 189/5/3 188/5/3 187/5/3
f 190/5/3 188/5/3 189/5/3
f 193/4/3 192/4/3 191/4/3
f 194/4/3 192/4/3 193/4/3
f 198/5/3 196/5/3 195/5/3
f 199/5/3 196/5/3 198/5/3
f 200/2/3 198/2/3 197/2/3
f 201/2/3 198/2/3 200/2/3
f 205/2/3 203/2/3 202/2/3
f 205/2/3 204/2/3 203/2/3
f 206/2/3 204/2/3 205/2/3
f 207/2/3 204/2/3 206/2/3
f 208/2/3 204/2/3 207/2/3
f 211/5/3 210/5/3 209/5/3
f 212/5/3 210/5/3 211/5/3
f 213/5/3 210/5/3 212/5/3
f 216/3/3 215/3/3 214/3/3
f 217/3/3 215/3/3 216/3/3
f 221/4/3 219/4/3 218/4/3
f 221/4/3 220/4/3 219/4/3
f 222/4/3 220/4/3 221/4/3
f 223/4/3 220/4/3 222/4/3
f 226/2/3 225/2/3 224/2/3
f 227/2/3 225/2/3 226/2/3
f 230/5/3 229/5/3 228/5/3
f 231/5/3 229/5/3 230/5/3
f 236/1/3 233/1/3 232/1/3
f 237/1/3 233/1/3 236/1/3
f 239/5/3 235/5/3 234/5/3
f 240/5/3 239/5/3 238/5/3
f 241/5/3 235/5/3 239/5/3
f 241/5/3 239/5/3 240/5/3
f 244/4/3 243/4/3 242/4/3
f 245/4/3 243/4/3 244/4/3
f 246/4/3 243/4/3 245/4/3
f 247/4/3 243/4/3 246/4/3
f 250/5/3 249/5/3 248/5/3
f 251/5/3 249/5/3 250/5/3
f 254/4/3 253/4/3 252/4/3
f 255/4/3 253/4/3 254/4/3
f 258/4/3 257/4/3 256/4/3
f 259/4/3 257/4/3 258/4/3
f 262/4/3 261/4/3 260/4/3
f 263/4/3 261/4/3 262/4/3
f 266/5/3 265/5/3 264/5/3
f 267/5/3 265/5/3 266/5/3
f 268/5/3 265/5/3 267/5/3
f 269/5/3 265/5/3 268/5/3
f 270/5/3 265/5/3 269/5/3
f 271/5/3 265/5/3 270/5/3
f 274/5/3 273/5/3 272/5/3
f 275/5/3 273/5/3 274/5/3
f 278/5/3 277/5/3 276/5/3
f 279/5/3 277/5/3 278/5/3
f 280/1/4 281/1/4 282/1/4
f 282/1/4 281/1/4 283/1/4
f 284/2/4 285/2/4 286/2/4
f 286/2/4 285/2/4 287/2/4
f 288/5/4 289/5/4 290/5/4
f 290/5/4 289/5/4 291/5/4
f 291/5/4 289/5/4 292/5/4
f 292/5/4 289/5/4 293/5/4
f 294/5/4 295/5/4 296/5/4
f 296/5/4 295/5/4 297/5/4
f 298/4/4 299/4/4 300/4/4
f 300/4/4 299/4/4 301/4/4
f 301/4/4 299/4/4 302/4/4
f 302/4/4 299/4/4 303/4/4
f 304/3/4 305/3/4 306/3/4
f 306/3/4 305/3/4 307/3/4
f 308/5/4 309/5/4 310/5/4
f 310/5/4 309/5/4 311/5/4
f 311/5/4 309/5/4 312/5/4
f 312/5/4 309/5/4 313/5/4
f 314/5/4 315/5/4 316/5/4
f 316/5/4 315/5/4 317/5/4
f 318/3/4 319/3/4 320/3/4
f 320/3/4 319/3/4 321/3/4
f 322/2/4 323/2/4 325/2/4
f 323/2/4 324/2/4 325/2/4
f 325/2/4 324/2/4 326/2/4
f 326/2/4 324/2/4 327/2/4
f 327/2/4 324/2/4 328/2/4
f 329/5/4 330/5/4 332/5/4
f 331/5/4 332/5/4 333/5/4
f 332/5/4 330/5/4 334/5/4
f 333/5/4 332/5/4 334/5/4
f 335/4/4 336/4/4 337/4/4
f 337/4/4 336/4/4 338/4/4
f 339/2/4 340/2/4 342/2/4
f 340/3/4 341/3/4 343/3/4
f 342/2/4 340/2/4 343/2/4
f 343/3/4 341/3/4 344/3/4
f 345/4/4 346/4/4 347/4/4
f 347/4/4 346/4/4 348/4/4
f 349/5/4 350/5/4 351/5/4
f 351/5/4 350/5/4 352/5/4
f 352/5/4 350/5/4 353/5/4
f 353/5/4 350/5/4 354/5/4
f 355/4/4 356/4/4 357/4/4
f 357/4/4 356/4/4 358/4/4
f 359/3/4 360/3/4 361/3/4
f 361/3/4 360/3/4 362/3/4
f 363/5/4 364/5/4 365/5/4
f 365/5/4 364/5/4 366/5/4
f 371/4/5 368/4/5 367/4/5
f 372/5/5 370/5/5 369/5/5
f 373/5/5 370/5/5 372/5/5
f 375/4/5 371/4/5 367/4/5
f 375/4/5 372/4/5 371/4/5
f 376/5/5 373/5/5 372/5/5
f 376/4/5 372/4/5 375/4/5
f 377/2/5 374/2/5 373/2/5
f 377/5/5 373/5/5 376/5/5
f 379/4/5 375/4/5 367/4/5
f 380/2/5 376/2/5 375/2/5
f 380/2/5 377/2/5 376/2/5
f 380/4/5 375/4/5 379/4/5
f 381/2/5 374/2/5 377/2/5
f 381/2/5 377/2/5 380/2/5
f 381/2/5 380/2/5 379/2/5
f 382/2/5 374/2/5 381/2/5
f 383/2/5 374/2/5 382/2/5
f 384/3/5 379/3/5 378/3/5
f 384/2/5 381/2/5 379/2/5
f 385/2/5 381/2/5 384/2/5
f 386/3/5 384/3/5 378/3/5
f 386/3/5 385/3/5 384/3/5
f 387/3/5 385/3/5 386/3/5
f 388/2/5 381/2/5 385/2/5
f 388/3/5 385/3/5 387/3/5
f 389/5/5 382/5/5 381/5/5
f 389/2/5 381/2/5 388/2/5
f 390/5/5 382/5/5 389/5/5
f 393/4/5 388/4/5 387/4/5
f 394/4/5 388/4/5 393/4/5
f 395/2/5 389/2/5 388/2/5
f 395/4/5 388/4/5 394/4/5
f 396/4/5 394/4/5 393/4/5
f 396/4/5 393/4/5 392/4/5
f 397/2/5 395/2/5 394/2/5
f 397/4/5 394/4/5 396/4/5
f 398/4/5 391/4/5 390/4/5
f 398/2/5 395/2/5 397/2/5
f 398/2/5 397/2/5 396/2/5
f 398/2/5 389/2/5 395/2/5
f 398/4/5 390/4/5 389/4/5
f 399/4/5 391/4/5 398/4/5
f 400/4/5 391/4/5 399/4/5
f 401/4/5 396/4/5 392/4/5
f 401/2/5 398/2/5 396/2/5
f 402/2/5 398/2/5 401/2/5
f 403/2/5 398/2/5 402/2/5
f 404/5/5 399/5/5 398/5/5
f 404/2/5 398/2/5 403/2/5
f 405/4/5 401/4/5 392/4/5
f 406/3/5 402/3/5 401/3/5
f 406/4/5 401/4/5 405/4/5
f 407/3/5 402/3/5 406/3/5
f 408/3/5 402/3/5 407/3/5
f 409/5/5 404/5/5 403/5/5
f 410/5/5 399/5/5 404/5/5
f 410/5/5 404/5/5 409/5/5
f 413/1/5 412/1/5 411/1/5
f 414/1/5 412/1/5 413/1/5
f 415/4/6 416/4/6 417/4/6
f 417/4/6 416/4/6 418/4/6
f 415/4/6 417/4/6 419/4/6
f 415/4/6 419/4/6 421/4/6
f 419/4/6 420/4/6 421/4/6
f 421/4/6 420/4/6 422/4/6
f 423/4/6 424/4/6 425/4/6
f 425/4/6 424/4/6 426/4/6
f 427/3/6 428/3/6 430/3/6
f 429/3/6 430/3/6 431/3/6
f 430/3/6 428/3/6 432/3/6
f 431/3/6 430/3/6 432/3/6
f 432/3/6 428/3/6 433/3/6
f 436/5/6 437/5/6 438/5/6
f 438/5/6 437/5/6 439/5/6
f 434/4/6 435/4/6 441/4/6
f 436/5/6 438/5/6 442/5/6
f 442/5/6 438/5/6 443/5/6
f 434/4/6 441/4/6 444/4/6
f 444/4/6 441/4/6 445/4/6
f 439/2/6 440/2/6 448/2/6
f 448/2/6 440/2/6 449/2/6
f 449/2/6 440/2/6 450/2/6
f 446/3/6 447/3/6 451/3/6
f 446/3/6 451/3/6 453/3/6
f 451/3/6 452/3/6 453/3/6
f 453/3/6 452/3/6 454/3/6
f 454/3/6 452/3/6 455/3/6
f 456/4/6 457/4/6 461/4/6
f 457/4/6 458/4/6 461/4/6
f 461/4/6 458/4/6 462/4/6
f 462/4/6 458/4/6 463/4/6
f 459/3/6 460/3/6 465/3/6
f 464/3/6 465/3/6 466/3/6
f 465/3/6 460/3/6 467/3/6
f 466/3/6 465/3/6 467/3/6
f 468/1/6 469/1/6 470/1/6
f 470/1/6 469/1/6 471/1/6
f 472/5/6 473/5/6 476/5/6
f 474/5/6 475/5/6 477/5/6
f 475/5/6 476/5/6 477/5/6
f 476/5/6 473/5/6 478/5/6
f 477/5/6 476/5/6 478/5/6
f 479/2/6 480/2/6 481/2/6
f 479/2/6 481/2/6 483/2/6
f 481/2/6 482/2/6 483/2/6
f 483/2/6 482/2/6 484/2/6
f 485/4/6 486/4/6 487/4/6
f 487/4/6 486/4/6 488/4/6
f 485/4/6 487/4/6 489/4/6
f 489/4/6 487/4/6 490/4/6
f 491/2/6 492/2/6 493/2/6
f 493/2/6 492/2/6 494/2/6
f 494/2/6 492/2/6 495/2/6
f 496/5/6 497/5/6 499/5/6
f 498/5/6 499/5/6 500/5/6
f 499/5/6 497/5/6 501/5/6
f 500/5/6 499/5/6 501/5/6
f 501/5/6 497/5/6 502/5/6
f 503/5/6 504/5/6 505/5/6
f 505/5/6 504/5/6 506/5/6
f 506/5/6 504/5/6 507/5/6
f 507/5/6 504/5/6 508/5/6
f 508/5/6 504/5/6 509/5/6
f 510/5/6 511/5/6 514/5/6
f 510/5/6 514/5/6 516/5/6
f 514/5/6 515/5/6 516/5/6
f 516/5/6 515/5/6 517/5/6
f 517/5/6 515/5/6 518/5/6
f 512/4/6 513/4/6 520/4/6
f 517/5/6 518/5/6 521/5/6
f 521/5/6 518/5/6 522/5/6
f 519/4/6 520/4/6 523/4/6
f 520/4/6 513/4/6 524/4/6
f 523/4/6 520/4/6 524/4/6
f 525/5/6 526/5/6 527/5/6
f 525/5/6 527/5/6 528/5/6
f 528/5/6 527/5/6 529/5/6
f 530/5/6 531/5/6 532/5/6
f 532/5/6 531/5/6 533/5/6
f 534/3/6 535/3/6 536/3/6
f 534/3/6 536/3/6 538/3/6
f 536/3/6 537/3/6 538/3/6
f 538/3/6 537/3/6 539/3/6
f 540/2/6 541/2/6 542/2/6
f 542/2/6 541/2/6 543/2/6
f 543/2/6 541/2/6 545/2/6
f 544/2/6 545/2/6 546/2/6
f 545/2/6 541/2/6 547/2/6
f 546/2/6 545/2/6 547/2/6
f 548/4/6 549/4/6 550/4/6
f 550/4/6 549/4/6 551/4/6
f 548/4/6 550/4/6 552/4/6
f 552/4/6 550/4/6 553/4/6
f 554/5/6 555/5/6 556/5/6
f 556/5/6 555/5/6 557/5/6
