# MagicaVoxel @ Ephtracy

# group
g projectile

# material
mtllib projectile.mtl
usemtl palette

# normals
vn -1 0 0
vn 1 0 0
vn 0 0 1
vn 0 0 -1
vn 0 -1 0
vn 0 1 0

# texcoords
vt 0.974609 0.5
vt 0.978516 0.5
vt 0.982422 0.5

# verts
v -20 7 20
v -20 7 10
v -20 7 -16
v -20 7 -20
v -20 22 10
v -20 22 -16
v -20 31 20
v -20 31 -19
v -20 32 -11
v -20 32 -19
v -20 32 -20
v -20 34 20
v -20 34 -11
v -18 0 10
v -18 0 -13
v -18 7 10
v -18 7 -13
v -18 34 11
v -18 34 -11
v -18 37 11
v -18 37 -9
v -18 40 11
v -18 40 -9
v -18 40 -11
v -13 0 -13
v -13 0 -16
v -13 0 -18
v -13 7 -13
v -13 7 -16
v -13 7 -18
v -13 34 17
v -13 34 11
v -13 40 17
v -13 40 11
v -9 0 18
v -9 0 17
v -9 0 10
v -9 7 18
v -9 7 17
v -9 7 10
v -9 32 -11
v -9 32 -18
v -9 40 -11
v -9 40 -18
v 3 0 -13
v 3 0 -16
v 3 0 -18
v 3 1 -17
v 3 1 -18
v 3 7 -18
v 3 7 -20
v 3 9 -13
v 3 9 -16
v 3 9 -17
v 3 9 -20
v 5 29 20
v 5 29 8
v 5 34 20
v 5 34 17
v 5 40 17
v 5 40 8
v 6 32 -7
v 6 32 -11
v 6 32 -17
v 6 32 -18
v 6 40 -7
v 6 40 -11
v 6 40 -18
v 13 25 -13
v 13 25 -17
v 13 25 -20
v 13 31 -13
v 13 31 -17
v 13 32 -13
v 13 32 -17
v 13 32 -20
v 14 0 18
v 14 0 13
v 14 7 20
v 14 7 18
v 14 9 19
v 14 9 13
v 14 10 20
v 14 10 19
v 14 10 13
v 16 32 8
v 16 32 4
v 16 32 -7
v 16 40 8
v 16 40 4
v 16 40 -7
v 17 0 13
v 17 0 -13
v 17 9 13
v 17 9 -13
v 20 9 13
v 20 9 -15
v 20 9 -20
v 20 10 20
v 20 10 19
v 20 10 13
v 20 11 -15
v 20 11 -20
v 20 14 20
v 20 14 19
v 20 14 -4
v 20 14 -15
v 20 25 -13
v 20 25 -20
v 20 28 20
v 20 28 8
v 20 29 20
v 20 29 8
v 20 29 7
v 20 31 -4
v 20 31 -13
v 20 32 8
v 20 32 7
v 20 32 -4
v 20 32 -13
v -20 7 20
v -20 31 20
v -20 34 20
v -17 7 20
v -17 17 20
v -2 7 20
v -2 17 20
v 2 14 20
v 2 31 20
v 2 32 20
v 4 28 20
v 4 32 20
v 4 34 20
v 5 29 20
v 5 34 20
v 14 7 20
v 14 10 20
v 20 10 20
v 20 14 20
v 20 28 20
v 20 29 20
v -9 0 18
v -9 7 18
v -2 0 18
v -2 7 18
v -1 0 18
v -1 3 18
v 11 0 18
v 11 3 18
v 14 0 18
v 14 7 18
v -13 34 17
v -13 40 17
v -4 34 17
v -1 34 17
v -1 40 17
v 4 34 17
v 4 40 17
v 5 34 17
v 5 40 17
v 14 0 13
v 14 9 13
v 14 10 13
v 16 0 13
v 16 9 13
v 16 10 13
v 17 0 13
v 17 9 13
v 20 9 13
v 20 10 13
v -18 34 11
v -18 37 11
v -18 40 11
v -17 34 11
v -17 37 11
v -13 34 11
v -13 40 11
v -18 0 10
v -18 7 10
v -9 0 10
v -9 7 10
v 5 29 8
v 5 40 8
v 16 32 8
v 16 40 8
v 20 29 8
v 20 32 8
v 6 32 -7
v 6 40 -7
v 16 32 -7
v 16 40 -7
v -20 32 -11
v -20 34 -11
v -18 34 -11
v -18 40 -11
v -17 32 -11
v -17 40 -11
v -9 32 -11
v -9 40 -11
v -18 0 -13
v -18 7 -13
v -13 0 -13
v -13 7 -13
v 3 0 -13
v 3 9 -13
v 13 25 -13
v 13 31 -13
v 13 32 -13
v 17 0 -13
v 17 9 -13
v 20 25 -13
v 20 31 -13
v 20 32 -13
v -13 0 -18
v -13 7 -18
v -9 32 -18
v -9 40 -18
v -8 1 -18
v -8 7 -18
v -8 32 -18
v -5 32 -18
v -5 39 -18
v -4 39 -18
v -4 40 -18
v 3 0 -18
v 3 1 -18
v 3 7 -18
v 6 32 -18
v 6 40 -18
v -20 7 -20
v -20 32 -20
v -8 7 -20
v -8 32 -20
v 3 7 -20
v 3 9 -20
v 13 9 -20
v 13 11 -20
v 13 25 -20
v 13 32 -20
v 20 9 -20
v 20 11 -20
v 20 25 -20
v -9 0 18
v -2 0 18
v -1 0 18
v 11 0 18
v 14 0 18
v -9 0 17
v -2 0 17
v -1 0 17
v 11 0 17
v 14 0 13
v 16 0 13
v 17 0 13
v -18 0 10
v -9 0 10
v 6 0 10
v 6 0 -3
v 16 0 -3
v -18 0 -13
v -13 0 -13
v 3 0 -13
v 17 0 -13
v -13 0 -16
v 3 0 -16
v -13 0 -18
v 3 0 -18
v -20 7 20
v -17 7 20
v -2 7 20
v 14 7 20
v -9 7 18
v -2 7 18
v 14 7 18
v -17 7 17
v -9 7 17
v -20 7 10
v -18 7 10
v -9 7 10
v -18 7 -13
v -13 7 -13
v -20 7 -16
v -13 7 -16
v -13 7 -18
v -8 7 -18
v 3 7 -18
v -20 7 -20
v -8 7 -20
v 3 7 -20
v 17 9 13
v 20 9 13
v 3 9 -13
v 17 9 -13
v 6 9 -15
v 9 9 -15
v 20 9 -15
v 3 9 -16
v 6 9 -16
v 3 9 -17
v 9 9 -17
v 13 9 -17
v 3 9 -20
v 13 9 -20
v 20 9 -20
v 14 10 20
v 20 10 20
v 14 10 19
v 16 10 19
v 20 10 19
v 14 10 13
v 16 10 13
v 20 10 13
v 13 25 -13
v 20 25 -13
v 13 25 -17
v 13 25 -20
v 20 25 -20
v 5 29 20
v 20 29 20
v 5 29 8
v 20 29 8
v 16 32 8
v 20 32 8
v 19 32 7
v 20 32 7
v 16 32 4
v 18 32 4
v 19 32 -4
v 20 32 -4
v 6 32 -7
v 16 32 -7
v -20 32 -11
v -17 32 -11
v -9 32 -11
v 6 32 -11
v 18 32 -11
v 13 32 -13
v 20 32 -13
v 6 32 -17
v 13 32 -17
v -17 32 -18
v -9 32 -18
v -8 32 -18
v -5 32 -18
v 6 32 -18
v -20 32 -19
v -8 32 -19
v -20 32 -20
v -8 32 -20
v 13 32 -20
v -20 34 20
v 4 34 20
v 5 34 20
v -15 34 18
v -4 34 18
v -13 34 17
v -4 34 17
v -1 34 17
v 4 34 17
v 5 34 17
v -17 34 16
v -15 34 16
v -18 34 11
v -17 34 11
v -13 34 11
v -20 34 -11
v -18 34 -11
v -13 40 17
v -1 40 17
v 4 40 17
v 5 40 17
v -18 40 11
v -13 40 11
v 4 40 8
v 5 40 8
v 16 40 8
v -13 40 4
v -4 40 4
v -1 40 4
v 4 40 4
v 16 40 4
v 6 40 -7
v 16 40 -7
v -18 40 -9
v -17 40 -9
v -18 40 -11
v -17 40 -11
v -9 40 -11
v 4 40 -11
v 6 40 -11
v -9 40 -18
v -4 40 -18
v 6 40 -18

# faces
f 5/3/1 2/3/1 1/3/1
f 5/2/1 3/2/1 2/2/1
f 6/3/1 4/3/1 3/3/1
f 6/2/1 3/2/1 5/2/1
f 7/3/1 5/3/1 1/3/1
f 7/3/1 6/3/1 5/3/1
f 8/3/1 4/3/1 6/3/1
f 8/3/1 6/3/1 7/3/1
f 9/1/1 8/1/1 7/1/1
f 10/3/1 4/3/1 8/3/1
f 10/1/1 8/1/1 9/1/1
f 11/3/1 4/3/1 10/3/1
f 12/1/1 9/1/1 7/1/1
f 13/1/1 9/1/1 12/1/1
f 16/2/1 15/2/1 14/2/1
f 17/2/1 15/2/1 16/2/1
f 20/1/1 19/1/1 18/1/1
f 21/1/1 19/1/1 20/1/1
f 22/2/1 21/2/1 20/2/1
f 23/1/1 19/1/1 21/1/1
f 23/2/1 21/2/1 22/2/1
f 24/1/1 19/1/1 23/1/1
f 28/2/1 26/2/1 25/2/1
f 29/3/1 27/3/1 26/3/1
f 29/2/1 26/2/1 28/2/1
f 30/3/1 27/3/1 29/3/1
f 33/3/1 32/3/1 31/3/1
f 34/3/1 32/3/1 33/3/1
f 38/2/1 36/2/1 35/2/1
f 39/3/1 37/3/1 36/3/1
f 39/2/1 36/2/1 38/2/1
f 40/3/1 37/3/1 39/3/1
f 43/2/1 42/2/1 41/2/1
f 44/2/1 42/2/1 43/2/1
f 46/3/2 47/3/2 48/3/2
f 48/3/2 47/3/2 49/3/2
f 48/2/2 49/2/2 50/2/2
f 45/2/2 46/2/2 52/2/2
f 46/3/2 48/3/2 53/3/2
f 52/2/2 46/2/2 53/2/2
f 50/2/2 51/2/2 54/2/2
f 53/3/2 48/3/2 54/3/2
f 48/2/2 50/2/2 54/2/2
f 54/2/2 51/2/2 55/2/2
f 56/3/2 57/3/2 58/3/2
f 58/3/2 57/3/2 59/3/2
f 59/3/2 57/3/2 60/3/2
f 60/3/2 57/3/2 61/3/2
f 62/2/2 63/2/2 66/2/2
f 64/1/2 65/1/2 67/1/2
f 66/2/2 63/2/2 67/2/2
f 63/1/2 64/1/2 67/1/2
f 67/1/2 65/1/2 68/1/2
f 69/3/2 70/3/2 72/3/2
f 70/2/2 71/2/2 73/2/2
f 72/3/2 70/3/2 73/3/2
f 72/1/2 73/1/2 74/1/2
f 73/2/2 71/2/2 75/2/2
f 74/1/2 73/1/2 75/1/2
f 75/2/2 71/2/2 76/2/2
f 77/3/2 78/3/2 80/3/2
f 79/3/2 80/3/2 81/3/2
f 80/3/2 78/3/2 82/3/2
f 81/3/2 80/3/2 82/3/2
f 79/3/2 81/3/2 83/3/2
f 81/1/2 82/1/2 84/1/2
f 83/3/2 81/3/2 84/3/2
f 84/1/2 82/1/2 85/1/2
f 86/1/2 87/1/2 89/1/2
f 87/2/2 88/2/2 90/2/2
f 89/1/2 87/1/2 90/1/2
f 90/2/2 88/2/2 91/2/2
f 92/2/2 93/2/2 94/2/2
f 94/2/2 93/2/2 95/2/2
f 96/2/2 97/2/2 101/2/2
f 97/1/2 98/1/2 102/1/2
f 100/2/2 101/2/2 102/2/2
f 101/2/2 97/2/2 102/2/2
f 102/1/2 98/1/2 103/1/2
f 99/3/2 100/3/2 104/3/2
f 100/2/2 102/2/2 105/2/2
f 104/3/2 100/3/2 105/3/2
f 105/2/2 102/2/2 106/2/2
f 102/3/2 103/3/2 107/3/2
f 106/2/2 102/2/2 107/2/2
f 106/3/2 107/3/2 108/3/2
f 107/3/2 103/3/2 109/3/2
f 108/3/2 107/3/2 109/3/2
f 105/2/2 106/2/2 110/2/2
f 104/2/2 105/2/2 110/2/2
f 110/2/2 106/2/2 111/2/2
f 110/3/2 111/3/2 112/3/2
f 111/2/2 106/2/2 113/2/2
f 112/3/2 111/3/2 113/3/2
f 113/2/2 106/2/2 114/2/2
f 106/3/2 108/3/2 115/3/2
f 114/2/2 106/2/2 115/2/2
f 115/3/2 108/3/2 116/3/2
f 113/1/2 114/1/2 117/1/2
f 114/2/2 115/2/2 118/2/2
f 117/1/2 114/1/2 118/1/2
f 115/1/2 116/1/2 119/1/2
f 118/2/2 115/2/2 119/2/2
f 119/1/2 116/1/2 120/1/2
f 124/3/3 122/3/3 121/3/3
f 125/3/3 122/3/3 124/3/3
f 126/2/3 125/2/3 124/2/3
f 127/3/3 122/3/3 125/3/3
f 127/2/3 125/2/3 126/2/3
f 128/3/3 127/3/3 126/3/3
f 129/1/3 123/1/3 122/1/3
f 129/3/3 127/3/3 128/3/3
f 129/3/3 122/3/3 127/3/3
f 130/1/3 123/1/3 129/1/3
f 131/2/3 129/2/3 128/2/3
f 131/2/3 130/2/3 129/2/3
f 132/1/3 123/1/3 130/1/3
f 132/2/3 130/2/3 131/2/3
f 133/1/3 123/1/3 132/1/3
f 134/3/3 132/3/3 131/3/3
f 134/3/3 133/3/3 132/3/3
f 135/3/3 133/3/3 134/3/3
f 136/3/3 128/3/3 126/3/3
f 137/3/3 128/3/3 136/3/3
f 138/3/3 128/3/3 137/3/3
f 139/2/3 131/2/3 128/2/3
f 139/3/3 128/3/3 138/3/3
f 140/3/3 134/3/3 131/3/3
f 140/2/3 131/2/3 139/2/3
f 141/3/3 134/3/3 140/3/3
f 144/2/3 143/2/3 142/2/3
f 145/2/3 143/2/3 144/2/3
f 146/3/3 145/3/3 144/3/3
f 147/3/3 145/3/3 146/3/3
f 148/2/3 147/2/3 146/2/3
f 149/3/3 145/3/3 147/3/3
f 149/2/3 147/2/3 148/2/3
f 150/3/3 149/3/3 148/3/3
f 151/3/3 145/3/3 149/3/3
f 151/3/3 149/3/3 150/3/3
f 154/3/3 153/3/3 152/3/3
f 155/3/3 153/3/3 154/3/3
f 156/3/3 153/3/3 155/3/3
f 157/1/3 156/1/3 155/1/3
f 158/1/3 156/1/3 157/1/3
f 159/3/3 158/3/3 157/3/3
f 160/3/3 158/3/3 159/3/3
f 164/3/3 162/3/3 161/3/3
f 165/1/3 163/1/3 162/1/3
f 165/3/3 162/3/3 164/3/3
f 166/1/3 163/1/3 165/1/3
f 167/2/3 165/2/3 164/2/3
f 167/2/3 166/2/3 165/2/3
f 168/2/3 166/2/3 167/2/3
f 169/2/3 166/2/3 168/2/3
f 170/2/3 166/2/3 169/2/3
f 174/1/3 172/1/3 171/1/3
f 175/2/3 173/2/3 172/2/3
f 175/1/3 172/1/3 174/1/3
f 176/2/3 175/2/3 174/2/3
f 177/2/3 173/2/3 175/2/3
f 177/2/3 175/2/3 176/2/3
f 180/2/3 179/2/3 178/2/3
f 181/2/3 179/2/3 180/2/3
f 184/1/3 183/1/3 182/1/3
f 185/1/3 183/1/3 184/1/3
f 186/1/3 184/1/3 182/1/3
f 187/1/3 184/1/3 186/1/3
f 188/2/4 189/2/4 190/2/4
f 190/2/4 189/2/4 191/2/4
f 192/1/4 193/1/4 194/1/4
f 192/1/4 194/1/4 196/1/4
f 194/1/4 195/1/4 196/1/4
f 196/1/4 195/1/4 197/1/4
f 196/2/4 197/2/4 198/2/4
f 198/2/4 197/2/4 199/2/4
f 200/2/4 201/2/4 202/2/4
f 202/2/4 201/2/4 203/2/4
f 204/2/4 205/2/4 209/2/4
f 209/2/4 205/2/4 210/2/4
f 206/3/4 207/3/4 211/3/4
f 207/1/4 208/1/4 212/1/4
f 211/3/4 207/3/4 212/3/4
f 212/1/4 208/1/4 213/1/4
f 214/3/4 215/3/4 218/3/4
f 218/3/4 215/3/4 219/3/4
f 216/2/4 217/2/4 220/2/4
f 220/2/4 217/2/4 221/2/4
f 221/2/4 217/2/4 222/2/4
f 221/1/4 222/1/4 223/1/4
f 222/2/4 217/2/4 223/2/4
f 223/2/4 217/2/4 224/2/4
f 214/3/4 218/3/4 225/3/4
f 218/2/4 219/2/4 226/2/4
f 225/3/4 218/3/4 226/3/4
f 226/2/4 219/2/4 227/2/4
f 221/1/4 223/1/4 228/1/4
f 223/1/4 224/1/4 228/1/4
f 228/1/4 224/1/4 229/1/4
f 230/3/4 231/3/4 232/3/4
f 232/3/4 231/3/4 233/3/4
f 232/2/4 233/2/4 234/2/4
f 234/2/4 233/2/4 235/2/4
f 235/2/4 233/2/4 236/2/4
f 236/2/4 233/2/4 237/2/4
f 237/2/4 233/2/4 238/2/4
f 238/2/4 233/2/4 239/2/4
f 236/1/4 237/1/4 240/1/4
f 237/3/4 238/3/4 241/3/4
f 240/1/4 237/1/4 241/1/4
f 241/3/4 238/3/4 242/3/4
f 248/2/5 244/2/5 243/2/5
f 249/3/5 245/3/5 244/3/5
f 249/2/5 244/2/5 248/2/5
f 250/2/5 246/2/5 245/2/5
f 250/3/5 245/3/5 249/3/5
f 251/3/5 247/3/5 246/3/5
f 251/2/5 246/2/5 250/2/5
f 252/3/5 250/3/5 249/3/5
f 252/3/5 247/3/5 251/3/5
f 252/3/5 251/3/5 250/3/5
f 252/3/5 249/3/5 248/3/5
f 256/3/5 252/3/5 248/3/5
f 256/3/5 253/3/5 252/3/5
f 257/3/5 253/3/5 256/3/5
f 258/2/5 256/2/5 255/2/5
f 258/3/5 253/3/5 257/3/5
f 258/2/5 257/2/5 256/2/5
f 259/2/5 254/2/5 253/2/5
f 259/3/5 253/3/5 258/3/5
f 260/2/5 258/2/5 255/2/5
f 260/2/5 259/2/5 258/2/5
f 261/2/5 259/2/5 260/2/5
f 262/2/5 259/2/5 261/2/5
f 263/2/5 254/2/5 259/2/5
f 263/2/5 259/2/5 262/2/5
f 264/2/5 262/2/5 261/2/5
f 265/2/5 262/2/5 264/2/5
f 266/3/5 265/3/5 264/3/5
f 267/3/5 265/3/5 266/3/5
f 272/2/5 270/2/5 269/2/5
f 273/3/5 271/3/5 270/3/5
f 273/2/5 270/2/5 272/2/5
f 274/3/5 271/3/5 273/3/5
f 275/3/5 269/3/5 268/3/5
f 275/2/5 272/2/5 269/2/5
f 276/2/5 272/2/5 275/2/5
f 277/3/5 275/3/5 268/3/5
f 277/3/5 276/3/5 275/3/5
f 278/3/5 276/3/5 277/3/5
f 279/3/5 276/3/5 278/3/5
f 280/2/5 278/2/5 277/2/5
f 282/2/5 280/2/5 277/2/5
f 282/2/5 281/2/5 280/2/5
f 283/2/5 281/2/5 282/2/5
f 284/3/5 283/3/5 282/3/5
f 287/3/5 284/3/5 282/3/5
f 287/3/5 285/3/5 284/3/5
f 288/2/5 286/2/5 285/2/5
f 288/3/5 285/3/5 287/3/5
f 289/2/5 286/2/5 288/2/5
f 293/2/5 291/2/5 290/2/5
f 294/2/5 293/2/5 292/2/5
f 295/2/5 293/2/5 294/2/5
f 296/2/5 291/2/5 293/2/5
f 296/2/5 293/2/5 295/2/5
f 297/2/5 294/2/5 292/2/5
f 298/3/5 295/3/5 294/3/5
f 298/2/5 294/2/5 297/2/5
f 299/3/5 298/3/5 297/3/5
f 300/1/5 296/1/5 295/1/5
f 300/3/5 298/3/5 299/3/5
f 300/3/5 295/3/5 298/3/5
f 301/1/5 296/1/5 300/1/5
f 302/2/5 300/2/5 299/2/5
f 302/2/5 301/2/5 300/2/5
f 303/1/5 296/1/5 301/1/5
f 303/2/5 301/2/5 302/2/5
f 304/1/5 296/1/5 303/1/5
f 307/3/5 306/3/5 305/3/5
f 308/3/5 306/3/5 307/3/5
f 309/3/5 306/3/5 308/3/5
f 310/1/5 308/1/5 307/1/5
f 311/2/5 309/2/5 308/2/5
f 311/1/5 308/1/5 310/1/5
f 312/2/5 309/2/5 311/2/5
f 313/3/6 314/3/6 315/3/6
f 315/3/6 314/3/6 316/3/6
f 316/3/6 314/3/6 317/3/6
f 318/3/6 319/3/6 320/3/6
f 320/3/6 319/3/6 321/3/6
f 322/1/6 323/1/6 324/1/6
f 324/1/6 323/1/6 325/1/6
f 322/1/6 324/1/6 326/1/6
f 326/1/6 324/1/6 327/1/6
f 324/2/6 325/2/6 328/2/6
f 327/1/6 324/1/6 328/1/6
f 328/2/6 325/2/6 329/2/6
f 326/2/6 327/2/6 331/2/6
f 330/2/6 331/2/6 335/2/6
f 327/1/6 328/1/6 336/1/6
f 335/2/6 331/2/6 336/2/6
f 328/1/6 329/1/6 336/1/6
f 331/2/6 327/2/6 336/2/6
f 335/1/6 336/1/6 337/1/6
f 336/1/6 329/1/6 338/1/6
f 337/1/6 336/1/6 338/1/6
f 335/1/6 337/1/6 339/1/6
f 339/1/6 337/1/6 340/1/6
f 332/1/6 333/1/6 341/1/6
f 333/2/6 334/2/6 341/2/6
f 341/2/6 334/2/6 342/2/6
f 339/2/6 340/2/6 345/2/6
f 332/1/6 341/1/6 346/1/6
f 341/1/6 342/1/6 346/1/6
f 342/1/6 343/1/6 346/1/6
f 343/2/6 344/2/6 347/2/6
f 346/1/6 343/1/6 347/1/6
f 344/2/6 345/2/6 347/2/6
f 346/3/6 347/3/6 348/3/6
f 347/2/6 345/2/6 349/2/6
f 348/3/6 347/3/6 349/3/6
f 345/2/6 340/2/6 350/2/6
f 349/2/6 345/2/6 350/2/6
f 351/1/6 352/1/6 354/1/6
f 354/1/6 352/1/6 355/1/6
f 354/2/6 355/2/6 356/2/6
f 355/1/6 352/1/6 357/1/6
f 356/2/6 355/2/6 357/2/6
f 357/1/6 352/1/6 358/1/6
f 352/3/6 353/3/6 359/3/6
f 358/1/6 352/1/6 359/1/6
f 359/3/6 353/3/6 360/3/6
f 351/1/6 354/1/6 361/1/6
f 354/2/6 356/2/6 362/2/6
f 361/1/6 354/1/6 362/1/6
f 351/1/6 361/1/6 363/1/6
f 361/2/6 362/2/6 364/2/6
f 363/1/6 361/1/6 364/1/6
f 362/2/6 356/2/6 365/2/6
f 364/2/6 362/2/6 365/2/6
f 351/1/6 363/1/6 366/1/6
f 366/1/6 363/1/6 367/1/6
f 368/3/6 369/3/6 373/3/6
f 370/3/6 371/3/6 374/3/6
f 369/1/6 370/1/6 374/1/6
f 374/3/6 371/3/6 375/3/6
f 372/2/6 373/2/6 377/2/6
f 373/3/6 369/3/6 377/3/6
f 377/3/6 369/3/6 378/3/6
f 375/1/6 376/1/6 379/1/6
f 378/3/6 369/3/6 379/3/6
f 374/1/6 375/1/6 379/1/6
f 369/1/6 374/1/6 379/1/6
f 379/1/6 376/1/6 380/1/6
f 380/1/6 376/1/6 381/1/6
f 380/2/6 381/2/6 382/2/6
f 382/2/6 381/2/6 383/2/6
f 377/2/6 378/2/6 384/2/6
f 372/2/6 377/2/6 384/2/6
f 384/2/6 378/2/6 385/2/6
f 384/1/6 385/1/6 386/1/6
f 385/2/6 378/2/6 387/2/6
f 386/1/6 385/1/6 387/1/6
f 387/2/6 378/2/6 388/2/6
f 380/2/6 382/2/6 389/2/6
f 378/1/6 379/1/6 389/1/6
f 379/1/6 380/1/6 389/1/6
f 389/2/6 382/2/6 390/2/6
f 388/2/6 378/2/6 391/2/6
f 389/1/6 390/1/6 392/1/6
f 391/2/6 378/2/6 392/2/6
f 378/1/6 389/1/6 392/1/6
f 392/1/6 390/1/6 393/1/6
